<svg height="766" width="720" xmlns="http://www.w3.org/2000/svg">
<rect height="766" fill="#555" width="720"></rect>
<text fill="#7f7" font-family="Courier New" font-size="12" xml:space="preserve">
<tspan x="10" y="26">27 megabytes installed</tspan>
<tspan x="10" y="42"></tspan>
<tspan x="10" y="58">node_modules</tspan>
<tspan x="10" y="74">└─┬ excel-stream@1.1.1 </tspan>
<tspan x="10" y="90">  ├─┬ concat-stream@1.6.0 </tspan>
<tspan x="10" y="106">  │ ├── inherits@2.0.3 </tspan>
<tspan x="10" y="122">  │ ├─┬ readable-stream@2.2.9 </tspan>
<tspan x="10" y="138">  │ │ ├── buffer-shims@1.0.0 </tspan>
<tspan x="10" y="154">  │ │ ├── core-util-is@1.0.2 </tspan>
<tspan x="10" y="170">  │ │ ├── isarray@1.0.0 </tspan>
<tspan x="10" y="186">  │ │ ├── process-nextick-args@1.0.7 </tspan>
<tspan x="10" y="202">  │ │ ├── string_decoder@1.0.0 </tspan>
<tspan x="10" y="218">  │ │ └── util-deprecate@1.0.2 </tspan>
<tspan x="10" y="234">  │ └── typedarray@0.0.6 </tspan>
<tspan x="10" y="250">  ├── csv-stream@0.1.3 </tspan>
<tspan x="10" y="266">  ├── duplexer@0.1.1 </tspan>
<tspan x="10" y="282">  ├─┬ j@0.4.5 </tspan>
<tspan x="10" y="298">  │ ├─┬ commander@2.9.0 </tspan>
<tspan x="10" y="314">  │ │ └── graceful-readlink@1.0.1 </tspan>
<tspan x="10" y="330">  │ ├── concat-stream@1.6.0 </tspan>
<tspan x="10" y="346">  │ ├── exit-on-epipe@1.0.0 </tspan>
<tspan x="10" y="362">  │ ├─┬ harb@0.1.1 </tspan>
<tspan x="10" y="378">  │ │ ├── babyparse@0.2.1 </tspan>
<tspan x="10" y="394">  │ │ ├─┬ codepage@1.8.1 </tspan>
<tspan x="10" y="410">  │ │ │ ├── concat-stream@1.6.0 </tspan>
<tspan x="10" y="426">  │ │ │ └── voc@0.5.0 </tspan>
<tspan x="10" y="442">  │ │ └─┬ ssf@0.8.2 </tspan>
<tspan x="10" y="458">  │ │   ├── colors@0.6.2 </tspan>
<tspan x="10" y="474">  │ │   └── frac@0.3.1 </tspan>
<tspan x="10" y="490">  │ ├─┬ xlsjs@0.7.6 </tspan>
<tspan x="10" y="506">  │ │ └── cfb@0.11.1 </tspan>
<tspan x="10" y="522">  │ └─┬ xlsx@0.9.11 </tspan>
<tspan x="10" y="538">  │   ├─┬ adler-32@1.0.0 </tspan>
<tspan x="10" y="554">  │   │ ├── concat-stream@1.6.0 </tspan>
<tspan x="10" y="570">  │   │ └── printj@1.0.0 </tspan>
<tspan x="10" y="586">  │   ├─┬ crc-32@1.0.1 </tspan>
<tspan x="10" y="602">  │   │ └── concat-stream@1.6.0 </tspan>
<tspan x="10" y="618">  │   └── ssf@0.9.0 </tspan>
<tspan x="10" y="634">  ├─┬ JSONStream@1.3.1 </tspan>
<tspan x="10" y="650">  │ └── jsonparse@1.3.0 </tspan>
<tspan x="10" y="666">  ├── minimist@1.2.0 </tspan>
<tspan x="10" y="682">  ├─┬ osenv@0.1.4 </tspan>
<tspan x="10" y="698">  │ ├── os-homedir@1.0.2 </tspan>
<tspan x="10" y="714">  │ └── os-tmpdir@1.0.2 </tspan>
<tspan x="10" y="730">  ├── through@2.3.8 </tspan>
<tspan x="10" y="746">  └── win-spawn@2.0.0</tspan>
</text>
</svg>
